<svg xmlns="http://www.w3.org/2000/svg" viewBox="0 0 1000 900">
  <rect width="1000" height="900" fill="#ECEEF2" />
  <path d="M 393.3,198.2 Q 419.2,260.0 441.3,362.1 Q 463.5,464.3 368.1,511.8 Q 272.8,559.3 191.6,504.6 Q 110.4,449.9 43.4,399.3 Q -23.6,348.7 -20.0,261.3 Q -16.4,173.9 30.5,93.5 Q 77.4,13.0 175.4,-15.2 Q 273.5,-43.4 320.4,46.5 Q 367.4,136.3 393.3,198.2 Z" fill="#5B4FE5" fill-opacity="0.1" /><path d="M 912.1,104.5 Q 964.2,180.0 930.5,271.0 Q 896.8,361.9 802.1,348.6 Q 707.4,335.2 653.3,327.5 Q 599.2,319.9 514.1,295.7 Q 428.9,271.4 435.5,182.4 Q 442.0,93.4 500.0,31.1 Q 558.1,-31.2 635.8,-20.6 Q 713.5,-10.1 786.7,9.5 Q 860.0,29.0 912.1,104.5 Z" fill="#E8368F" fill-opacity="0.09" /><path d="M 952.4,549.3 Q 976.4,620.0 970.6,705.9 Q 964.8,791.9 883.1,823.3 Q 801.4,854.7 711.4,857.4 Q 621.4,860.1 558.7,788.1 Q 496.0,716.1 539.8,635.9 Q 583.6,555.8 627.1,510.4 Q 670.5,465.0 742.7,386.8 Q 814.9,308.6 871.7,393.6 Q 928.5,478.6 952.4,549.3 Z" fill="#22C1A0" fill-opacity="0.11" /><path d="M 461.3,621.1 Q 454.5,700.0 427.3,750.4 Q 400.0,800.7 357.0,846.9 Q 314.0,893.1 256.1,867.4 Q 198.2,841.7 167.8,796.8 Q 137.4,751.9 116.3,692.3 Q 95.1,632.7 121.0,551.1 Q 146.9,469.5 235.2,461.5 Q 323.5,453.4 395.8,497.8 Q 468.2,542.1 461.3,621.1 Z" fill="#5B4FE5" fill-opacity="0.08" /><path d="M 685.6,355.7 Q 694.2,430.0 676.7,496.8 Q 659.2,563.6 598.2,602.2 Q 537.2,640.8 460.8,635.4 Q 384.5,630.0 344.7,565.5 Q 304.9,501.0 295.0,426.4 Q 285.1,351.8 361.1,336.5 Q 437.1,321.1 483.8,288.9 Q 530.6,256.6 603.8,269.1 Q 677.0,281.5 685.6,355.7 Z" fill="#6B4FE0" fill-opacity="0.07" />
</svg>